<?xml version="1.0" encoding="iso-8859-1"?>
<!-- Generator: Adobe Illustrator 19.0.0, SVG Export Plug-In . SVG Version: 6.00 Build 0)  -->
<svg version="1.1" id="Capa_1" xmlns="http://www.w3.org/2000/svg" xmlns:xlink="http://www.w3.org/1999/xlink" x="0px" y="0px"
	 viewBox="0 0 511.999 511.999" style="enable-background:new 0 0 511.999 511.999;" xml:space="preserve">
<g>
	<path style="fill:#FF5A5A;" d="M259.466,156.064L140.716,10L10.001,170.787h67.061v286.606h127.311l-0.002-115.736
		C175.381,324.149,156,292.337,156,256.001c0-55.229,44.773-100,100.002-100C257.161,156,258.314,156.02,259.466,156.064z"/>
	<path style="fill:#7AEAE7;" d="M256.001,156c-55.229,0-100.002,44.771-100.002,100c0,36.336,19.381,68.148,48.371,85.656
		c14.145,8.545,30.578,13.688,48.164,14.279c1.152,0.045,2.307,0.065,3.467,0.065c55.227,0,100-44.772,100-100
		c0-36.336-19.381-68.148-48.37-85.654c-14.143-8.547-30.579-13.689-48.165-14.281L256.001,156z"/>
	<path style="fill:#0586AD;" d="M307.631,170.344c28.989,17.508,48.37,49.32,48.37,85.656c0,55.228-44.773,100-100,100
		c-1.16,0-2.314-0.02-3.467-0.065L371.282,502l130.717-160.787h-67.06V54.607H307.631V170.344z"/>
</g>
<path d="M511.029,336.916c-1.657-3.484-5.171-5.703-9.03-5.703h-57.06V54.607c0-5.521-4.478-10-10-10H307.631
	c-5.522,0-10,4.479-10,10v99.58c-10.374-4.256-21.534-6.98-33.2-7.867L148.476,3.691c-1.9-2.336-4.75-3.691-7.76-3.691
	s-5.86,1.355-7.76,3.691L2.241,164.479c-2.434,2.994-2.928,7.121-1.27,10.605c1.657,3.482,5.171,5.703,9.03,5.703h57.06v276.606
	c0,5.521,4.478,10,10,10h127.311c5.522,0,10-4.479,10-10V357.81c10.373,4.258,21.531,6.98,33.195,7.869l115.955,142.629
	c1.899,2.334,4.75,3.691,7.76,3.691s5.86-1.357,7.76-3.691l130.717-160.787C512.192,344.527,512.687,340.4,511.029,336.916z
	 M256.001,346c-49.626,0-90-40.375-90-90c0-49.627,40.374-90,90-90c49.627,0,90,40.373,90,90
	C346.001,305.625,305.628,346,256.001,346z M194.372,447.393H87.062V170.787c0-5.523-4.477-10-10-10H31.019L140.716,25.852
	l98.695,121.398c-52.811,8.023-93.41,53.732-93.41,108.75c0,37.834,19.201,71.268,48.371,91.07L194.372,447.393L194.372,447.393z
	 M371.282,486.147L272.589,364.75c52.813-8.022,93.412-53.732,93.412-108.75c0-37.836-19.201-71.268-48.37-91.07V64.607h107.308
	v276.605c0,5.522,4.477,10,10,10h46.043L371.282,486.147z"/>
<path d="M296.749,224.416l-53.475,53.473l-28.025-28.025c-3.904-3.902-10.236-3.904-14.142,0
	c-3.905,3.906-3.905,10.238-0.001,14.143l35.096,35.096c1.953,1.953,4.512,2.93,7.071,2.93s5.118-0.977,7.071-2.93l60.547-60.543
	c3.904-3.904,3.905-10.236,0-14.143C306.987,220.514,300.655,220.512,296.749,224.416z"/>
<path d="M117.063,365.955c-5.522,0-10,4.477-10,10v41.438c0,5.523,4.478,10,10,10s10-4.477,10-10v-41.438
	C127.063,370.432,122.585,365.955,117.063,365.955z"/>
<path d="M117.063,336.395c-5.522,0-10,4.478-10,10v0.475c0,5.521,4.478,10,10,10s10-4.479,10-10v-0.475
	C127.063,340.873,122.585,336.395,117.063,336.395z"/>
<path d="M394.938,84.607c-5.522,0-10,4.477-10,10v41.438c0,5.523,4.478,10,10,10s10-4.477,10-10V94.607
	C404.938,89.084,400.46,84.607,394.938,84.607z"/>
<path d="M394.938,155.129c-5.522,0-10,4.477-10,10v0.477c0,5.521,4.478,10,10,10s10-4.479,10-10v-0.477
	C404.938,159.605,400.46,155.129,394.938,155.129z"/>
<g>
</g>
<g>
</g>
<g>
</g>
<g>
</g>
<g>
</g>
<g>
</g>
<g>
</g>
<g>
</g>
<g>
</g>
<g>
</g>
<g>
</g>
<g>
</g>
<g>
</g>
<g>
</g>
<g>
</g>
</svg>
